<svg class="svg-icon fill-current" role="img" focusable="false" xmlns="http://www.w3.org/2000/svg" width="1.938em" height="1.188em" viewBox="0 0 31 15"><path d="M18.4 6.9c-.7 0-1.1.7-1.1 1.5s.4 1.4 1.1 1.4c.5 0 .9-.3.9-.8V7.7c0-.5-.4-.8-.9-.8zm6.5 0c-.5 0-.9.3-.9.8 0 .1-.1.2-.1.3v1.1c.1.5.5.8.9.8.7 0 1.1-.5 1.1-1.5.1-.9-.3-1.5-1-1.5z"></path><path d="M31 0H0v15h31V0zM5.4 11H3.8V3.8h1.6V11zm9.3 0h-1.6V8.1c0-.8-.2-1.2-.8-1.2-.3 0-.6.2-.7.6 0 .1-.1.3-.1.4v3H9.9V8c0-.7-.2-1.1-.7-1.1-.4 0-.7.2-.8.6 0 .1-.1.3-.1.4v3H6.7V5.7h1.4l.1.7c.4-.5 1-.8 1.6-.8.6 0 1.2.3 1.4.9.2-.3.5-.5.8-.6.3-.2.6-.3 1-.3 1 0 1.8.7 1.8 2.2l-.1 3.2zm4.9 0l-.1-.8c-.3.6-.9.9-1.6.9-1.2 0-2.2-1.1-2.2-2.7 0-1.8 1.1-2.8 2.3-2.8.5 0 1 .2 1.4.6V3.4H21V11h-1.4zm5.6.1c-.6 0-1.3-.3-1.6-.8v.7h-1.3V3.4h1.6v3c.4-.5 1-.8 1.6-.7 1.2 0 2.2 1 2.1 2.6 0 1.8-1.2 2.8-2.4 2.8z"></path></svg>